<svg width="138" height="137" viewBox="0 0 138 137" fill="none" xmlns="http://www.w3.org/2000/svg">
    <path d="M123.282 55.0819L109.521 68.8423L123.282 82.6026L137.042 68.8422L123.282 55.0819Z" fill="#0A0F22"/>
    <path d="M14.4894 54.932L0.729126 68.6923L14.4895 82.4526L28.2498 68.6923L14.4894 54.932Z" fill="#0A0F22"/>
    <path d="M82.2164 68.0641L68.4562 81.8243L122.783 136.151L136.544 122.391L82.2164 68.0641Z" fill="#0A0F22"/>
    <path d="M55.0264 67.7273L0.699341 122.054L14.4596 135.815L68.7867 81.4875L55.0264 67.7273Z" fill="#0A0F22"/>
    <path d="M122.88 0.206257L68.5526 54.5333L82.3129 68.2936L136.64 13.9665L122.88 0.206257Z" fill="#0A0F22"/>
    <path d="M14.115 0.450581L0.354614 14.2109L54.6817 68.538L68.442 54.7776L14.115 0.450581Z" fill="#0A0F22"/>
    <path d="M68.4959 109.467L54.7356 123.227L68.4959 136.987L82.2561 123.227L68.4959 109.467Z" fill="#0A0F22"/>
    <path d="M68.6767 0.922993L54.9164 14.6833L68.6767 28.4437L82.4371 14.6833L68.6767 0.922993Z" fill="#0A0F22"/>
</svg>
