<svg width="580" height="82" viewBox="0 0 580 82" fill="none" xmlns="http://www.w3.org/2000/svg">
<g clip-path="url(#clip0_47_494)">
<path d="M58.0399 40.8583C56.8426 40.3483 55.5883 39.895 54.277 39.5549C54.277 39.5549 54.391 39.5549 54.4481 39.4983C57.7548 37.9115 60.4345 35.5881 62.3729 32.6413C64.3684 29.6379 65.3377 26.0111 65.3377 21.6476C65.3377 15.244 62.8291 10.2004 57.8119 6.46027C52.7947 2.77678 45.6109 0.906708 36.3177 0.906708H0V81.0933H38.5983C48.8607 81.0933 56.5576 79.2232 61.8028 75.4264C66.9911 71.6296 69.6137 66.3027 69.6137 59.4458C69.6137 54.8556 68.5874 51.0021 66.4779 47.942C64.3684 44.8252 61.5748 42.5017 58.0399 40.915V40.8583ZM35.2915 10.2004C41.1639 10.2004 45.725 11.2771 48.9177 13.4305C52.1675 15.584 53.7639 18.7574 53.7639 23.0643C53.7639 27.3711 52.1675 30.5446 48.9177 32.698C45.6679 34.8514 41.1069 35.9281 35.2915 35.9281H11.5738V10.2004H35.2915ZM52.8517 68.5695C49.4309 70.7229 44.5847 71.7996 38.1421 71.7996H11.5738V45.1085H38.1421C44.5277 45.1085 49.4309 46.1852 52.8517 48.3386C56.2725 50.4921 57.9259 53.8922 57.9259 58.5391C57.9259 63.1859 56.2155 66.4727 52.8517 68.6261V68.5695Z" fill="#0A0F22"/>
<path d="M118.874 0.906708L82.2139 81.0933H94.1297L103.024 61.0325H146.069L154.963 81.0933H167.107L130.333 0.906708H118.874ZM107.072 51.9088L124.518 12.5805L141.964 51.9088H107.072Z" fill="#0A0F22"/>
<path d="M244.133 60.6358L195.557 0.906708H186.093V81.0933H197.667V21.3642L246.242 81.0933H255.763V0.906708H244.19V60.6358H244.133Z" fill="#0A0F22"/>
<path d="M355.594 0.906708H342.424L298.466 45.7319V0.906708H286.893V81.0933H298.466V60.3525L313.29 45.4485L344.248 81.0933H357.761L320.987 37.0615L355.594 0.906708Z" fill="#0A0F22"/>
<path d="M453.258 24.7077C451.149 19.7208 448.127 15.3573 444.307 11.6738C440.43 7.99033 435.926 5.10021 430.681 3.06013C425.436 1.02004 419.734 0.0566711 413.577 0.0566711C407.419 0.0566711 401.604 1.07671 396.359 3.17346C391.114 5.21355 386.552 8.10366 382.733 11.8438C378.856 15.5273 375.891 19.8908 373.724 24.821C371.558 29.8079 370.475 35.1914 370.475 41.085C370.475 46.9786 371.558 52.4188 373.724 57.349C375.891 62.3359 378.856 66.6427 382.733 70.3262C386.609 74.0097 391.171 76.8998 396.416 78.9965C401.718 81.0366 407.419 82.1133 413.577 82.1133C419.734 82.1133 425.436 81.0933 430.681 79.1099C435.926 77.0698 440.487 74.2364 444.307 70.4962C448.184 66.8127 451.149 62.4492 453.258 57.519C455.368 52.5321 456.451 47.0919 456.451 41.1417C456.451 35.1914 455.368 29.8079 453.258 24.821V24.7077ZM442.483 53.2688C440.886 57.009 438.72 60.2958 435.869 63.0726C433.076 65.8493 429.712 68.0028 425.949 69.5328C422.129 71.0629 417.967 71.7996 413.406 71.7996C408.845 71.7996 404.797 71.0629 400.977 69.5328C397.157 68.0028 393.85 65.8493 391 63.0726C388.149 60.2958 385.925 57.009 384.329 53.2688C382.733 49.5287 381.991 45.4485 381.991 41.0283C381.991 36.6082 382.79 32.528 384.329 28.8445C385.925 25.161 388.092 21.8742 391 19.0408C393.85 16.2073 397.214 14.0539 400.977 12.5238C404.797 10.9938 408.902 10.2571 413.406 10.2571C417.91 10.2571 422.129 10.9938 425.949 12.5238C429.769 14.0539 433.076 16.2073 435.869 19.0408C438.663 21.8742 440.886 25.161 442.483 28.8445C444.079 32.528 444.82 36.6082 444.82 41.0283C444.82 45.4485 444.022 49.5287 442.483 53.2688Z" fill="#0A0F22"/>
<path d="M575.382 41.7084C578.461 36.8915 580 31.1113 580 24.3677C580 16.944 577.378 11.1638 572.132 7.02695C567.001 2.89012 559.646 0.850037 550.239 0.850037H520.136L504.001 81.0933H515.632L520.478 56.5556H542.029C542.77 56.5556 543.511 56.499 544.253 56.4423L558.278 81.0933H570.479L555.655 54.9689C557.993 54.4022 560.216 53.7222 562.269 52.8155C567.97 50.2087 572.303 46.5252 575.325 41.7084H575.382ZM542.428 46.8652H522.473L529.714 10.8804H549.213C555.427 10.8804 560.216 12.1272 563.523 14.5639C566.83 17.0007 568.483 20.6275 568.483 25.4444C568.483 32.4713 566.203 37.8549 561.585 41.4817C557.024 45.0518 550.638 46.8652 542.428 46.8652Z" fill="#0A0F22"/>
</g>
<defs>
<clipPath id="clip0_47_494">
<rect width="580" height="82" fill="white"/>
</clipPath>
</defs>
</svg>
