<svg width="593" height="86" viewBox="0 0 593 86" fill="none" xmlns="http://www.w3.org/2000/svg">
    <path d="M188.48 42.83C187.24 42.21 186 41.8 184.56 41.59H184.77C188.07 39.94 190.76 37.4599 192.82 34.5699C194.88 31.4699 195.71 27.76 195.71 23.42C195.71 16.81 193.23 11.6499 188.07 7.93994C182.91 4.01994 175.68 2.16003 166.19 2.16003H129.44V84.3199H168.66C178.98 84.3199 186.83 82.26 192.19 78.54C197.55 74.82 200.24 69.25 200.24 62.23C200.24 55.21 199.21 53.56 197.14 50.46C195.07 47.36 192.19 44.89 188.68 43.23V43.02L188.47 42.8101L188.48 42.83ZM165.36 11.45C171.35 11.45 175.89 12.48 179.19 14.75C182.49 17.02 184.14 20.12 184.14 24.66C184.14 29.2 182.49 32.2999 179.19 34.5699C175.89 36.8399 171.35 37.87 165.36 37.87H141.41V11.65H165.36V11.4399V11.45ZM183.32 71.3101C179.81 73.5801 174.86 74.61 168.46 74.61H141.42V47.36H168.46C174.86 47.36 180.02 48.39 183.32 50.66C186.83 52.93 188.48 56.4399 188.48 61.1899C188.48 65.9399 186.83 69.45 183.32 71.51V71.3V71.3101Z" fill="#0A0F22"/>
    <path d="M250.21 1.94995L213.05 84.11H225.23L234.31 63.67H278.07L287.15 84.11H299.54L262.18 1.94995H250.21ZM238.44 54.1801L256.19 13.9301L273.94 54.1801H238.43H238.44Z" fill="#0A0F22"/>
    <path d="M377.37 63.26L328.03 1.94995H318.54V84.11H330.1V23.01L379.44 84.11H389.14V1.94995H377.37V63.26Z" fill="#0A0F22"/>
    <path d="M490.5 1.94995H477.29L432.49 47.99V1.94995H420.93V84.11H432.49V62.85L447.56 47.5699L479.15 84.11H492.77L455.41 38.9L490.5 1.94995Z" fill="#0A0F22"/>
    <path d="M589.59 26.3101C587.32 21.1501 584.43 16.61 580.51 12.89C576.59 8.97001 572.05 6.08001 566.68 4.01001C561.31 1.95001 555.53 0.910034 549.34 0.910034C543.15 0.910034 537.16 1.94001 531.79 4.01001C526.42 6.07001 521.88 8.96001 517.96 12.89C514.04 16.82 510.94 21.1501 508.88 26.3101C506.82 31.4701 505.58 36.84 505.58 43.03C505.58 49.22 506.61 54.59 508.88 59.75C511.15 64.91 514.04 69.25 517.96 73.17C521.88 77.09 526.42 79.98 531.79 82.05C537.16 84.11 542.94 85.15 549.34 85.15C555.74 85.15 561.31 84.12 566.68 82.05C572.05 79.9901 576.59 77.1 580.51 73.17C584.43 69.24 587.53 64.91 589.59 59.75C591.86 54.59 592.89 49.02 592.89 43.03C592.89 37.04 591.86 31.4701 589.59 26.3101ZM578.85 55.62C577.2 59.54 574.93 62.85 572.24 65.74C569.55 68.63 566.05 70.69 562.12 72.35C558.2 73.8 554.07 74.83 549.32 74.83C544.57 74.83 540.65 74 536.73 72.35C532.81 70.9 529.5 68.43 526.61 65.74C523.72 62.85 521.45 59.55 519.8 55.62C518.15 51.69 517.32 47.57 517.32 43.03C517.32 38.49 518.15 34.36 519.8 30.64C521.45 26.72 523.72 23.62 526.61 20.52C529.5 17.63 533.01 15.36 536.73 13.91C540.45 12.46 544.78 11.4301 549.32 11.4301C553.86 11.4301 558.2 12.26 562.12 13.91C566.04 15.36 569.35 17.83 572.24 20.52C575.13 23.41 577.4 26.71 578.85 30.64C580.5 34.56 581.33 38.69 581.33 43.03C581.33 47.37 580.5 51.7 578.85 55.62Z" fill="#0A0F22"/>
    <path d="M74.7464 35.0289L66.4238 43.3516L74.7464 51.6742L83.0691 43.3516L74.7464 35.0289Z" fill="#0A0F22"/>
    <path d="M8.97639 34.9416L0.653748 43.2643L8.97641 51.5869L17.299 43.2643L8.97639 34.9416Z" fill="#0A0F22"/>
    <path d="M49.9238 42.8789L41.6012 51.2015L74.4463 84.0466L82.7689 75.724L49.9238 42.8789Z" fill="#0A0F22"/>
    <path d="M33.4918 42.6805L0.646698 75.5256L8.96936 83.8483L41.8145 51.0032L33.4918 42.6805Z" fill="#0A0F22"/>
    <path d="M74.5033 1.86095L41.6582 34.7061L49.9807 43.0286L82.8258 10.1835L74.5033 1.86095Z" fill="#0A0F22"/>
    <path d="M8.75281 2.01097L0.430161 10.3336L33.2752 43.1787L41.5979 34.856L8.75281 2.01097Z" fill="#0A0F22"/>
    <path d="M41.6267 67.9079L33.3041 76.2306L41.6267 84.5533L49.9494 76.2306L41.6267 67.9079Z" fill="#0A0F22"/>
    <path d="M41.7412 2.29271L33.4186 10.6154L41.7412 18.938L50.0639 10.6154L41.7412 2.29271Z" fill="#0A0F22"/>
</svg>
