<?xml version="1.0" encoding="UTF-8" standalone="no" ?>
<!DOCTYPE svg PUBLIC "-//W3C//DTD SVG 1.1//EN" "http://www.w3.org/Graphics/SVG/1.1/DTD/svg11.dtd">
<svg xmlns="http://www.w3.org/2000/svg" xmlns:xlink="http://www.w3.org/1999/xlink" version="1.1" width="1080" height="200" viewBox="0 0 1080 200" xml:space="preserve">
<desc>Created with Fabric.js 5.2.4</desc>
<defs>
</defs>
<g transform="matrix(1 0 0 1 540 100)" id="dad9758f-ed82-4c7d-9619-2fc3cb98172a"  >
<rect style="stroke: none; stroke-width: 1; stroke-dasharray: none; stroke-linecap: butt; stroke-dashoffset: 0; stroke-linejoin: miter; stroke-miterlimit: 4; fill: rgb(255,255,255); fill-rule: nonzero; opacity: 1; visibility: hidden;" vector-effect="non-scaling-stroke"  x="-540" y="-100" rx="0" ry="0" width="1080" height="200" />
</g>
<g transform="matrix(Infinity NaN NaN Infinity 0 0)" id="6a31fcd4-5efc-4917-9586-af804ad5308b"  >
</g>
<g transform="matrix(1 0 0 1 215.81 100)"  >
<g style="" vector-effect="non-scaling-stroke"   >
		<g transform="matrix(1 0 0 1 34.09 -8.86)" clip-path="url(#CLIPPATH_4)"  >
<clipPath id="CLIPPATH_4" >
	<rect transform="matrix(1 0 0 1 -34.58 9.36)" id="clip0_27_820" x="-197.5" y="-97.5" rx="0" ry="0" width="395" height="195" />
</clipPath>
<path style="stroke: none; stroke-width: 1; stroke-dasharray: none; stroke-linecap: butt; stroke-dashoffset: 0; stroke-linejoin: miter; stroke-miterlimit: 4; fill: rgb(34,21,81); fill-rule: nonzero; opacity: 1;" vector-effect="non-scaling-stroke"  transform=" translate(-232.08, -88.14)" d="M 242.268 78.8223 C 239.407 77.2306 236.187 76.4097 232.556 76.4097 C 229.875 76.4097 227.425 76.9102 225.154 77.9113 C 222.884 78.9124 221.023 80.414 219.523 82.3662 L 219.523 61.7837 L 212.761 61.7837 L 212.761 114.041 L 219.253 114.041 L 219.253 108.134 C 220.753 110.177 222.654 111.768 224.974 112.859 C 227.295 113.951 229.785 114.491 232.556 114.491 C 236.187 114.491 239.407 113.67 242.268 112.079 C 245.129 110.487 247.349 108.264 248.99 105.351 C 250.62 102.438 251.4 99.1245 251.4 95.4004 C 251.4 91.6763 250.58 88.3127 248.99 85.4495 C 247.359 82.6365 245.129 80.404 242.268 78.8123 L 242.268 78.8223 Z M 242.948 102.318 C 241.858 104.32 240.358 105.862 238.457 106.953 C 236.547 108.044 234.416 108.585 232.006 108.585 C 229.595 108.585 227.515 108.044 225.604 106.953 C 223.694 105.862 222.204 104.32 221.113 102.318 C 220.023 100.316 219.483 98.0433 219.483 95.4605 C 219.483 92.8777 220.023 90.5952 221.113 88.603 C 222.204 86.6008 223.704 85.0591 225.604 83.9679 C 227.515 82.8767 229.645 82.3361 232.006 82.3361 C 234.366 82.3361 236.547 82.8767 238.457 83.9679 C 240.368 85.0591 241.858 86.6008 242.948 88.603 C 244.038 90.6052 244.579 92.8777 244.579 95.4605 C 244.579 98.0433 244.038 100.326 242.948 102.318 Z" stroke-linecap="round" />
</g>
		<g transform="matrix(1 0 0 1 177.15 -9.04)" clip-path="url(#CLIPPATH_5)"  >
<clipPath id="CLIPPATH_5" >
	<rect transform="matrix(1 0 0 1 -177.64 9.54)" id="clip0_27_820" x="-197.5" y="-97.5" rx="0" ry="0" width="395" height="195" />
</clipPath>
<path style="stroke: none; stroke-width: 1; stroke-dasharray: none; stroke-linecap: butt; stroke-dashoffset: 0; stroke-linejoin: miter; stroke-miterlimit: 4; fill: rgb(34,21,81); fill-rule: nonzero; opacity: 1;" vector-effect="non-scaling-stroke"  transform=" translate(-375.14, -87.96)" d="M 376.298 92.1867 L 392.012 76.7798 L 383.84 76.7798 L 363.495 95.3701 L 363.495 61.8335 L 356.734 61.8335 L 356.734 114.091 L 363.495 114.091 L 363.495 103.869 L 371.217 96.6816 L 385.25 114.091 L 393.552 114.091 L 376.298 92.1867 Z" stroke-linecap="round" />
</g>
		<g transform="matrix(1 0 0 1 128.49 -1.73)" clip-path="url(#CLIPPATH_6)"  >
<clipPath id="CLIPPATH_6" >
	<rect transform="matrix(1 0 0 1 -128.99 2.23)" id="clip0_27_820" x="-197.5" y="-97.5" rx="0" ry="0" width="395" height="195" />
</clipPath>
<path style="stroke: none; stroke-width: 1; stroke-dasharray: none; stroke-linecap: butt; stroke-dashoffset: 0; stroke-linejoin: miter; stroke-miterlimit: 4; fill: rgb(34,21,81); fill-rule: nonzero; opacity: 1;" vector-effect="non-scaling-stroke"  transform=" translate(-326.49, -95.27)" d="M 328.717 76.4197 C 325.767 76.4197 323.136 76.9202 320.816 77.9614 C 318.495 79.0025 316.635 80.4641 315.274 82.4162 L 315.274 76.7801 L 308.783 76.7801 L 308.783 114.131 L 315.544 114.131 L 315.544 94.8598 C 315.544 90.8655 316.585 87.8121 318.725 85.6798 C 320.866 83.5475 323.716 82.4563 327.397 82.4563 C 330.618 82.4563 333.118 83.3673 334.839 85.1792 C 336.559 87.0012 337.429 89.7242 337.429 93.3582 L 337.429 114.081 L 344.191 114.081 L 344.191 92.5873 C 344.191 87.2715 342.781 83.2672 340.01 80.5041 C 337.199 77.7812 333.428 76.4097 328.707 76.4097 L 328.717 76.4197 Z" stroke-linecap="round" />
</g>
		<g transform="matrix(1 0 0 1 78.67 -1.48)" clip-path="url(#CLIPPATH_7)"  >
<clipPath id="CLIPPATH_7" >
	<rect transform="matrix(1 0 0 1 -79.16 1.97)" id="clip0_27_820" x="-197.5" y="-97.5" rx="0" ry="0" width="395" height="195" />
</clipPath>
<path style="stroke: none; stroke-width: 1; stroke-dasharray: none; stroke-linecap: butt; stroke-dashoffset: 0; stroke-linejoin: miter; stroke-miterlimit: 4; fill: rgb(34,21,81); fill-rule: nonzero; opacity: 1;" vector-effect="non-scaling-stroke"  transform=" translate(-276.66, -95.53)" d="M 289.219 82.4165 C 287.718 80.4643 285.858 78.9627 283.587 77.9616 C 281.317 76.9605 278.866 76.46 276.186 76.46 C 272.555 76.46 269.334 77.2809 266.474 78.8726 C 263.613 80.4643 261.392 82.6868 259.752 85.5499 C 258.112 88.413 257.342 91.7266 257.342 95.5008 C 257.342 99.2749 258.162 102.589 259.752 105.452 C 261.382 108.365 263.613 110.587 266.474 112.179 C 269.334 113.771 272.555 114.592 276.186 114.592 C 278.956 114.592 281.497 114.051 283.767 112.96 C 286.088 111.869 287.988 110.327 289.489 108.235 L 289.489 114.141 L 295.98 114.141 L 295.98 76.7903 L 289.219 76.7903 L 289.219 82.4265 L 289.219 82.4165 Z M 287.668 102.318 C 286.578 104.32 285.078 105.862 283.177 106.953 C 281.277 108.044 279.136 108.585 276.776 108.585 C 274.415 108.585 272.235 108.044 270.324 106.953 C 268.414 105.862 266.924 104.32 265.833 102.318 C 264.743 100.316 264.203 98.0435 264.203 95.4607 C 264.203 92.8779 264.743 90.5954 265.833 88.6032 C 266.924 86.601 268.424 85.0594 270.324 83.9682 C 272.235 82.877 274.365 82.3364 276.776 82.3364 C 279.186 82.3364 281.267 82.877 283.177 83.9682 C 285.088 85.0594 286.578 86.601 287.668 88.6032 C 288.759 90.6054 289.299 92.8779 289.299 95.4607 C 289.299 98.0435 288.759 100.326 287.668 102.318 Z" stroke-linecap="round" />
</g>
		<g transform="matrix(1 0 0 1 -99.44 0)" clip-path="url(#CLIPPATH_8)"  >
<clipPath id="CLIPPATH_8" >
	<rect transform="matrix(1 0 0 1 98.94 0.5)" id="clip0_27_820" x="-197.5" y="-97.5" rx="0" ry="0" width="395" height="195" />
</clipPath>
<path style="stroke: none; stroke-width: 1; stroke-dasharray: none; stroke-linecap: butt; stroke-dashoffset: 0; stroke-linejoin: miter; stroke-miterlimit: 4; fill: rgb(76,18,161); fill-rule: evenodd; opacity: 1;" vector-effect="non-scaling-stroke"  transform=" translate(-98.56, -97)" d="M 98.5559 0.796875 C 151.638 0.796875 194.677 43.8739 194.677 97.002 C 194.677 150.13 151.638 193.207 98.5559 193.207 C 45.474 193.207 2.43433 150.13 2.43433 97.002 C 2.43433 85.3192 4.5248 74.1871 8.29564 63.8257 C 5.75507 71.8645 4.34475 80.4139 4.34475 89.2735 C 4.34475 135.584 41.8532 173.075 88.0735 173.075 C 134.294 173.075 171.802 135.534 171.802 89.2735 C 171.802 43.013 134.294 5.48199 88.0735 5.48199 C 70.3195 5.48199 53.8859 11.0281 40.3528 20.4283 C 56.5164 8.11487 76.681 0.796875 98.5659 0.796875 L 98.5559 0.796875 Z" stroke-linecap="round" />
</g>
		<g transform="matrix(1 0 0 1 -152.17 -1.91)" clip-path="url(#CLIPPATH_9)"  >
<clipPath id="CLIPPATH_9" >
	<rect transform="matrix(1 0 0 1 151.68 2.41)" id="clip0_27_820" x="-197.5" y="-97.5" rx="0" ry="0" width="395" height="195" />
</clipPath>
<path style="stroke: none; stroke-width: 1; stroke-dasharray: none; stroke-linecap: butt; stroke-dashoffset: 0; stroke-linejoin: miter; stroke-miterlimit: 4; fill: rgb(34,21,81); fill-rule: nonzero; opacity: 1;" vector-effect="non-scaling-stroke"  transform=" translate(-45.82, -95.09)" d="M 56.0664 78.0112 C 53.7458 76.8299 51.0752 76.2393 47.9846 76.2393 C 44.6238 76.2393 41.6231 76.92 39.1326 78.2815 C 37.2221 79.2826 35.7318 80.604 34.5515 82.2358 L 34.5515 76.5997 L 28.1001 76.5997 L 28.1001 113.95 L 34.8616 113.95 L 34.8616 94.7295 C 34.8616 92.0065 35.3617 89.734 36.3119 87.912 C 37.2622 86.09 38.6325 84.6885 40.4429 83.7775 C 42.2133 82.8265 44.3037 82.366 46.7043 82.366 C 49.885 82.366 52.3755 83.277 54.1459 85.0889 C 55.9163 86.9009 56.7765 89.6339 56.7765 93.2679 L 56.7765 113.94 L 63.538 113.94 L 63.538 92.447 C 63.538 88.7629 62.8979 85.7697 61.5876 83.357 C 60.1773 80.9945 58.3669 79.1725 56.0464 77.9912 L 56.0664 78.0112 Z" stroke-linecap="round" />
</g>
		<g transform="matrix(1 0 0 1 -62.92 -1.68)" clip-path="url(#CLIPPATH_10)"  >
<clipPath id="CLIPPATH_10" >
	<rect transform="matrix(1 0 0 1 62.43 2.17)" id="clip0_27_820" x="-197.5" y="-97.5" rx="0" ry="0" width="395" height="195" />
</clipPath>
<path style="stroke: none; stroke-width: 1; stroke-dasharray: none; stroke-linecap: butt; stroke-dashoffset: 0; stroke-linejoin: miter; stroke-miterlimit: 4; fill: rgb(34,21,81); fill-rule: nonzero; opacity: 1;" vector-effect="non-scaling-stroke"  transform=" translate(-135.07, -95.33)" d="M 151.958 85.3692 C 150.277 82.5061 148.007 80.2837 145.056 78.6919 C 142.106 77.0602 138.795 76.2793 135.114 76.2793 C 131.433 76.2793 128.032 77.1002 125.122 78.6919 C 122.211 80.3237 119.901 82.5562 118.22 85.4193 C 116.54 88.2824 115.68 91.556 115.68 95.2801 C 115.68 99.0041 116.54 102.238 118.22 105.101 C 119.901 108.014 122.211 110.236 125.122 111.918 C 128.032 113.55 131.343 114.371 135.114 114.371 C 138.885 114.371 142.156 113.55 145.056 111.918 C 148.007 110.286 150.277 108.014 151.958 105.151 C 153.638 102.288 154.458 99.0141 154.458 95.2901 C 154.458 91.566 153.598 88.2424 151.958 85.3792 L 151.958 85.3692 Z M 146.006 102.228 C 144.916 104.23 143.416 105.772 141.555 106.863 C 139.645 107.954 137.515 108.494 135.104 108.494 C 132.694 108.494 130.563 107.954 128.703 106.863 C 126.842 105.772 125.342 104.23 124.212 102.228 C 123.081 100.225 122.531 97.9129 122.531 95.27 C 122.531 92.6272 123.071 90.2746 124.212 88.3124 C 125.352 86.3503 126.842 84.8587 128.703 83.7675 C 130.563 82.6763 132.694 82.1357 135.104 82.1357 C 137.515 82.1357 139.645 82.6763 141.555 83.7675 C 143.466 84.8587 144.956 86.3603 146.006 88.3124 C 147.097 90.2646 147.637 92.5871 147.637 95.27 C 147.587 97.9029 147.047 100.225 146.006 102.228 Z" stroke-linecap="round" />
</g>
		<g transform="matrix(1 0 0 1 -106.83 -1.73)" clip-path="url(#CLIPPATH_11)"  >
<clipPath id="CLIPPATH_11" >
	<rect transform="matrix(1 0 0 1 106.34 2.23)" id="clip0_27_820" x="-197.5" y="-97.5" rx="0" ry="0" width="395" height="195" />
</clipPath>
<path style="stroke: none; stroke-width: 1; stroke-dasharray: none; stroke-linecap: butt; stroke-dashoffset: 0; stroke-linejoin: miter; stroke-miterlimit: 4; fill: rgb(34,21,81); fill-rule: nonzero; opacity: 1;" vector-effect="non-scaling-stroke"  transform=" translate(-91.16, -95.27)" d="M 100.876 78.6421 C 98.1058 77.0504 94.9251 76.2295 91.2943 76.2295 C 87.6635 76.2295 84.5328 77.0504 81.6721 78.6421 C 78.8115 80.2739 76.591 82.5063 75.0006 85.3695 C 73.3703 88.2326 72.5901 91.5062 72.5901 95.2302 C 72.5901 98.9543 73.4103 102.228 75.0906 105.091 C 76.771 107.954 79.0815 110.227 82.1322 111.858 C 85.1729 113.49 88.6737 114.311 92.6646 114.311 C 95.7553 114.311 98.5659 113.811 101.066 112.769 C 103.567 111.728 105.698 110.227 107.378 108.275 L 103.657 103.91 C 102.297 105.411 100.706 106.543 98.886 107.273 C 97.0656 108.044 95.0751 108.405 92.8446 108.405 C 90.164 108.405 87.8035 107.864 85.713 106.773 C 83.6726 105.682 82.0322 104.18 80.9019 102.228 C 80.0418 100.776 79.5416 99.1846 79.3116 97.4527 L 109.598 97.4527 C 109.648 97.1323 109.688 96.7719 109.688 96.4115 C 109.738 96.0511 109.738 95.6807 109.738 95.4104 C 109.738 91.5462 108.968 88.1825 107.378 85.3194 C 105.838 82.5063 103.657 80.2739 100.886 78.6421 L 100.876 78.6421 Z M 85.0329 83.5575 C 86.8533 82.5164 88.9338 81.9658 91.2943 81.9658 C 93.6548 81.9658 95.7853 82.5063 97.6057 83.5575 C 99.4261 84.6086 100.826 86.1003 101.877 87.9623 C 102.647 89.3738 103.147 90.9656 103.287 92.6875 L 79.3116 92.6875 C 79.4916 90.9656 79.9917 89.4139 80.7619 88.0023 C 81.7621 86.0903 83.2125 84.5986 85.0329 83.5475 L 85.0329 83.5575 Z" stroke-linecap="round" />
</g>
</g>
</g>
<g transform="matrix(1 0 0 1 744.12 100)"  >
<g style="" vector-effect="non-scaling-stroke"   >
		<g transform="matrix(1 0 0 1 -131.82 0.21)"  >
<path style="stroke: none; stroke-width: 1; stroke-dasharray: none; stroke-linecap: butt; stroke-dashoffset: 0; stroke-linejoin: miter; stroke-miterlimit: 4; fill: rgb(10,15,34); fill-rule: nonzero; opacity: 1;" vector-effect="non-scaling-stroke"  transform=" translate(-164.84, -43.24)" d="M 188.48 42.83 C 187.24 42.21 186 41.8 184.56 41.59 L 184.77 41.59 C 188.07 39.94 190.76 37.4599 192.82 34.5699 C 194.88 31.4699 195.71 27.76 195.71 23.42 C 195.71 16.81 193.23 11.6499 188.07 7.93994 C 182.91 4.01994 175.68 2.16003 166.19 2.16003 L 129.44 2.16003 L 129.44 84.3199 L 168.66 84.3199 C 178.98 84.3199 186.83 82.26 192.19 78.54 C 197.55 74.82 200.24 69.25 200.24 62.23 C 200.24 55.21 199.21 53.56 197.14 50.46 C 195.07 47.36 192.19 44.89 188.68 43.23 L 188.68 43.02 L 188.47 42.8101 L 188.48 42.83 Z M 165.36 11.45 C 171.35 11.45 175.89 12.48 179.19 14.75 C 182.49 17.02 184.14 20.12 184.14 24.66 C 184.14 29.2 182.49 32.2999 179.19 34.5699 C 175.89 36.8399 171.35 37.87 165.36 37.87 L 141.41 37.87 L 141.41 11.65 L 165.36 11.65 L 165.36 11.4399 L 165.36 11.45 Z M 183.32 71.3101 C 179.81 73.5801 174.86 74.61 168.46 74.61 L 141.42 74.61 L 141.42 47.36 L 168.46 47.36 C 174.86 47.36 180.02 48.39 183.32 50.66 C 186.83 52.93 188.48 56.4399 188.48 61.1899 C 188.48 65.9399 186.83 69.45 183.32 71.51 L 183.32 71.3 L 183.32 71.3101 Z" stroke-linecap="round" />
</g>
		<g transform="matrix(1 0 0 1 -40.37 0)"  >
<path style="stroke: none; stroke-width: 1; stroke-dasharray: none; stroke-linecap: butt; stroke-dashoffset: 0; stroke-linejoin: miter; stroke-miterlimit: 4; fill: rgb(10,15,34); fill-rule: nonzero; opacity: 1;" vector-effect="non-scaling-stroke"  transform=" translate(-256.3, -43.03)" d="M 250.21 1.94995 L 213.05 84.11 L 225.23 84.11 L 234.31 63.67 L 278.07 63.67 L 287.15 84.11 L 299.54 84.11 L 262.18 1.94995 L 250.21 1.94995 Z M 238.44 54.1801 L 256.19 13.9301 L 273.94 54.1801 L 238.43 54.1801 L 238.44 54.1801 Z" stroke-linecap="round" />
</g>
		<g transform="matrix(1 0 0 1 57.18 0)"  >
<path style="stroke: none; stroke-width: 1; stroke-dasharray: none; stroke-linecap: butt; stroke-dashoffset: 0; stroke-linejoin: miter; stroke-miterlimit: 4; fill: rgb(10,15,34); fill-rule: nonzero; opacity: 1;" vector-effect="non-scaling-stroke"  transform=" translate(-353.84, -43.03)" d="M 377.37 63.26 L 328.03 1.94995 L 318.54 1.94995 L 318.54 84.11 L 330.1 84.11 L 330.1 23.01 L 379.44 84.11 L 389.14 84.11 L 389.14 1.94995 L 377.37 1.94995 L 377.37 63.26 Z" stroke-linecap="round" />
</g>
		<g transform="matrix(1 0 0 1 160.19 0)"  >
<path style="stroke: none; stroke-width: 1; stroke-dasharray: none; stroke-linecap: butt; stroke-dashoffset: 0; stroke-linejoin: miter; stroke-miterlimit: 4; fill: rgb(10,15,34); fill-rule: nonzero; opacity: 1;" vector-effect="non-scaling-stroke"  transform=" translate(-456.85, -43.03)" d="M 490.5 1.94995 L 477.29 1.94995 L 432.49 47.99 L 432.49 1.94995 L 420.93 1.94995 L 420.93 84.11 L 432.49 84.11 L 432.49 62.85 L 447.56 47.5699 L 479.15 84.11 L 492.77 84.11 L 455.41 38.9 L 490.5 1.94995 Z" stroke-linecap="round" />
</g>
		<g transform="matrix(1 0 0 1 252.57 0)"  >
<path style="stroke: none; stroke-width: 1; stroke-dasharray: none; stroke-linecap: butt; stroke-dashoffset: 0; stroke-linejoin: miter; stroke-miterlimit: 4; fill: rgb(10,15,34); fill-rule: nonzero; opacity: 1;" vector-effect="non-scaling-stroke"  transform=" translate(-549.24, -43.03)" d="M 589.59 26.3101 C 587.32 21.1501 584.43 16.61 580.51 12.89 C 576.59 8.97001 572.05 6.08001 566.68 4.01001 C 561.31 1.95001 555.53 0.910034 549.34 0.910034 C 543.15 0.910034 537.16 1.94001 531.79 4.01001 C 526.42 6.07001 521.88 8.96001 517.96 12.89 C 514.04 16.82 510.94 21.1501 508.88 26.3101 C 506.82 31.4701 505.58 36.84 505.58 43.03 C 505.58 49.22 506.61 54.59 508.88 59.75 C 511.15 64.91 514.04 69.25 517.96 73.17 C 521.88 77.09 526.42 79.98 531.79 82.05 C 537.16 84.11 542.94 85.15 549.34 85.15 C 555.74 85.15 561.31 84.12 566.68 82.05 C 572.05 79.9901 576.59 77.1 580.51 73.17 C 584.43 69.24 587.53 64.91 589.59 59.75 C 591.86 54.59 592.89 49.02 592.89 43.03 C 592.89 37.04 591.86 31.4701 589.59 26.3101 Z M 578.85 55.62 C 577.2 59.54 574.93 62.85 572.24 65.74 C 569.55 68.63 566.05 70.69 562.12 72.35 C 558.2 73.8 554.07 74.83 549.32 74.83 C 544.57 74.83 540.65 74 536.73 72.35 C 532.81 70.9 529.5 68.43 526.61 65.74 C 523.72 62.85 521.45 59.55 519.8 55.62 C 518.15 51.69 517.32 47.57 517.32 43.03 C 517.32 38.49 518.15 34.36 519.8 30.64 C 521.45 26.72 523.72 23.62 526.61 20.52 C 529.5 17.63 533.01 15.36 536.73 13.91 C 540.45 12.46 544.78 11.4301 549.32 11.4301 C 553.86 11.4301 558.2 12.26 562.12 13.91 C 566.04 15.36 569.35 17.83 572.24 20.52 C 575.13 23.41 577.4 26.71 578.85 30.64 C 580.5 34.56 581.33 38.69 581.33 43.03 C 581.33 47.37 580.5 51.7 578.85 55.62 Z" stroke-linecap="round" />
</g>
		<g transform="matrix(1 0 0 1 -221.91 0.32)"  >
<path style="stroke: none; stroke-width: 1; stroke-dasharray: none; stroke-linecap: butt; stroke-dashoffset: 0; stroke-linejoin: miter; stroke-miterlimit: 4; fill: rgb(10,15,34); fill-rule: nonzero; opacity: 1;" vector-effect="non-scaling-stroke"  transform=" translate(-74.75, -43.35)" d="M 74.7464 35.0289 L 66.4238 43.3516 L 74.7464 51.6742 L 83.0691 43.3516 L 74.7464 35.0289 Z" stroke-linecap="round" />
</g>
		<g transform="matrix(1 0 0 1 -287.68 0.23)"  >
<path style="stroke: none; stroke-width: 1; stroke-dasharray: none; stroke-linecap: butt; stroke-dashoffset: 0; stroke-linejoin: miter; stroke-miterlimit: 4; fill: rgb(10,15,34); fill-rule: nonzero; opacity: 1;" vector-effect="non-scaling-stroke"  transform=" translate(-8.98, -43.26)" d="M 8.97639 34.9416 L 0.653748 43.2643 L 8.97641 51.5869 L 17.299 43.2643 L 8.97639 34.9416 Z" stroke-linecap="round" />
</g>
		<g transform="matrix(1 0 0 1 -234.48 20.43)"  >
<path style="stroke: none; stroke-width: 1; stroke-dasharray: none; stroke-linecap: butt; stroke-dashoffset: 0; stroke-linejoin: miter; stroke-miterlimit: 4; fill: rgb(10,15,34); fill-rule: nonzero; opacity: 1;" vector-effect="non-scaling-stroke"  transform=" translate(-62.19, -63.46)" d="M 49.9238 42.8789 L 41.6012 51.2015 L 74.4463 84.0466 L 82.7689 75.724 L 49.9238 42.8789 Z" stroke-linecap="round" />
</g>
		<g transform="matrix(1 0 0 1 -275.43 20.23)"  >
<path style="stroke: none; stroke-width: 1; stroke-dasharray: none; stroke-linecap: butt; stroke-dashoffset: 0; stroke-linejoin: miter; stroke-miterlimit: 4; fill: rgb(10,15,34); fill-rule: nonzero; opacity: 1;" vector-effect="non-scaling-stroke"  transform=" translate(-21.23, -63.26)" d="M 33.4918 42.6805 L 0.646698 75.5256 L 8.96936 83.8483 L 41.8145 51.0032 L 33.4918 42.6805 Z" stroke-linecap="round" />
</g>
		<g transform="matrix(1 0 0 1 -234.42 -20.59)"  >
<path style="stroke: none; stroke-width: 1; stroke-dasharray: none; stroke-linecap: butt; stroke-dashoffset: 0; stroke-linejoin: miter; stroke-miterlimit: 4; fill: rgb(10,15,34); fill-rule: nonzero; opacity: 1;" vector-effect="non-scaling-stroke"  transform=" translate(-62.24, -22.44)" d="M 74.5033 1.86095 L 41.6582 34.7061 L 49.9807 43.0286 L 82.8258 10.1835 L 74.5033 1.86095 Z" stroke-linecap="round" />
</g>
		<g transform="matrix(1 0 0 1 -275.65 -20.44)"  >
<path style="stroke: none; stroke-width: 1; stroke-dasharray: none; stroke-linecap: butt; stroke-dashoffset: 0; stroke-linejoin: miter; stroke-miterlimit: 4; fill: rgb(10,15,34); fill-rule: nonzero; opacity: 1;" vector-effect="non-scaling-stroke"  transform=" translate(-21.01, -22.59)" d="M 8.75281 2.01097 L 0.430161 10.3336 L 33.2752 43.1787 L 41.5979 34.856 L 8.75281 2.01097 Z" stroke-linecap="round" />
</g>
		<g transform="matrix(1 0 0 1 -255.03 33.2)"  >
<path style="stroke: none; stroke-width: 1; stroke-dasharray: none; stroke-linecap: butt; stroke-dashoffset: 0; stroke-linejoin: miter; stroke-miterlimit: 4; fill: rgb(10,15,34); fill-rule: nonzero; opacity: 1;" vector-effect="non-scaling-stroke"  transform=" translate(-41.63, -76.23)" d="M 41.6267 67.9079 L 33.3041 76.2306 L 41.6267 84.5533 L 49.9494 76.2306 L 41.6267 67.9079 Z" stroke-linecap="round" />
</g>
		<g transform="matrix(1 0 0 1 -254.92 -32.41)"  >
<path style="stroke: none; stroke-width: 1; stroke-dasharray: none; stroke-linecap: butt; stroke-dashoffset: 0; stroke-linejoin: miter; stroke-miterlimit: 4; fill: rgb(10,15,34); fill-rule: nonzero; opacity: 1;" vector-effect="non-scaling-stroke"  transform=" translate(-41.74, -10.62)" d="M 41.7412 2.29271 L 33.4186 10.6154 L 41.7412 18.938 L 50.0639 10.6154 L 41.7412 2.29271 Z" stroke-linecap="round" />
</g>
</g>
</g>
</svg>